<svg xmlns="http://www.w3.org/2000/svg" viewBox="0 0 200 50" width="200" height="50">
  <defs>
    <linearGradient id="leafGrad" x1="0%" y1="0%" x2="100%" y2="100%">
      <stop offset="0%" style="stop-color:#16a34a;stop-opacity:1" />
      <stop offset="100%" style="stop-color:#0f766e;stop-opacity:1" />
    </linearGradient>
  </defs>
  <!-- Leaf icon -->
  <g transform="translate(5, 5)">
    <path d="M18 2C10 2 2 10 2 22c0 2 0.5 3.5 1.5 5C5 22 10 14 22 10c-4 8-10 14-16 17 2 1.5 4 2 6.5 2C22 29 30 20 30 12c0-4-2-7-4-8C24 3 21 2 18 2z" fill="url(#leafGrad)" />
  </g>
  <!-- REFEX text -->
  <text x="42" y="34" font-family="'Inter', 'Segoe UI', system-ui, sans-serif" font-size="28" font-weight="700" letter-spacing="2">
    <tspan fill="#0f766e">RE</tspan><tspan fill="#16a34a">FEX</tspan>
  </text>
</svg>
